<?xml version="1.0" encoding="UTF-8" standalone="no"?>
<svg width="800mm" height="600mm" viewBox="0 0 800 600" version="1.1" id="svg5" xmlns="http://www.w3.org/2000/svg" xmlns:svg="http://www.w3.org/2000/svg">
<g id="checkers">
<rect width="70" height="70" x="15" y="20"></rect>
<rect width="70" height="70" x="155" y="20"></rect>
<rect width="70" height="70" x="295" y="20"></rect>
<rect width="70" height="70" x="435" y="20"></rect>
<rect width="70" height="70" x="575" y="20"></rect>
<rect width="70" height="70" x="715" y="20"></rect>
<rect width="70" height="70" x="85" y="90"></rect>
<rect width="70" height="70" x="225" y="90"></rect>
<rect width="70" height="70" x="365" y="90"></rect>
<rect width="70" height="70" x="505" y="90"></rect>
<rect width="70" height="70" x="645" y="90"></rect>
<rect width="70" height="70" x="15" y="160"></rect>
<rect width="70" height="70" x="155" y="160"></rect>
<rect width="70" height="70" x="295" y="160"></rect>
<rect width="70" height="70" x="435" y="160"></rect>
<rect width="70" height="70" x="575" y="160"></rect>
<rect width="70" height="70" x="715" y="160"></rect>
<rect width="70" height="70" x="85" y="230"></rect>
<rect width="70" height="70" x="225" y="230"></rect>
<rect width="70" height="70" x="365" y="230"></rect>
<rect width="70" height="70" x="505" y="230"></rect>
<rect width="70" height="70" x="645" y="230"></rect>
<rect width="70" height="70" x="15" y="300"></rect>
<rect width="70" height="70" x="155" y="300"></rect>
<rect width="70" height="70" x="295" y="300"></rect>
<rect width="70" height="70" x="435" y="300"></rect>
<rect width="70" height="70" x="575" y="300"></rect>
<rect width="70" height="70" x="715" y="300"></rect>
<rect width="70" height="70" x="85" y="370"></rect>
<rect width="70" height="70" x="225" y="370"></rect>
<rect width="70" height="70" x="365" y="370"></rect>
<rect width="70" height="70" x="505" y="370"></rect>
<rect width="70" height="70" x="645" y="370"></rect>
<rect width="70" height="70" x="15" y="440"></rect>
<rect width="70" height="70" x="155" y="440"></rect>
<rect width="70" height="70" x="295" y="440"></rect>
<rect width="70" height="70" x="435" y="440"></rect>
<rect width="70" height="70" x="575" y="440"></rect>
<rect width="70" height="70" x="715" y="440"></rect>
<rect width="70" height="70" x="85" y="510"></rect>
<rect width="70" height="70" x="225" y="510"></rect>
<rect width="70" height="70" x="365" y="510"></rect>
<rect width="70" height="70" x="505" y="510"></rect>
<rect width="70" height="70" x="645" y="510"></rect>

</g>
</svg>
